<?xml version="1.0" encoding="UTF-8"?>
<svg xmlns="http://www.w3.org/2000/svg" viewBox="0 0 800 800">
  <g id="a" data-name="Capa 1"/>
  <g id="b" data-name="Capa 2">
    <g id="c" data-name="Capa 1">
      <rect width="800" height="800" fill="none"/>
      <g>
        <path d="M6.98,218.36c20.73-4.1,66.86-8.29,109.55-8.29,53.12,0,81.8,5.27,107.7,19.09,26.22,12.86,46.45,38.41,46.45,75.27,0,32.66-18.57,63.19-59.31,78.51v1.22c39.49,10.75,71.71,42.15,71.71,92.06,0,35.18-16.41,62.62-39.71,81.06-27.07,21.17-71.24,32.66-144.1,32.66-43.07,0-73.99-3.08-92.3-5.93V218.36Zm81.36,140.93h29.12c47.33,0,70.13-17.35,70.13-44.17,0-28.58-22.68-41.44-60.81-41.44-20.41,0-31.3,1.34-38.43,2.68v82.93Zm0,164.6c8.6,1.46,19.41,1.57,35.15,1.57,38.38,0,72.73-13.64,72.73-53.36,0-37.21-33.63-50.63-76.95-50.63h-30.93v102.42Z" fill="#004ea7"/>
        <path d="M655.35,439.25c-1.69-48.28-3.17-103.97-3.17-163.36h-1.54c-13.61,50.23-31.17,105.53-47.52,154.47l-50.02,149.28h-70.11l-43.19-148.26c-13.62-48.42-26.82-103.51-37.24-155.49h-1.1c-2.09,53.98-3.98,114.97-6.34,164.53l-7.16,145.33h-83.16l22.86-372.36h124.18l38.52,121.01c12.25,41.18,24.43,89.87,33.31,134.03h1.98c11.69-43.69,25.73-95.2,39.32-134.78l42.94-120.26h121.36l19.11,372.36h-87.52l-5.5-146.49Z" fill="#006ec4"/>
        <path d="M700,439.25c-1.69-48.28-3.17-103.98-3.17-163.36h-1.54c-13.61,50.23-31.17,105.53-47.52,154.47l-50.02,149.28h-70.11l-43.19-148.26c-13.62-48.42-26.82-103.51-37.24-155.49h-1.1c-2.09,53.98-3.98,114.97-6.34,164.53l-7.16,145.33h-83.16l22.86-372.36h124.18l38.52,121.01c12.25,41.18,24.43,89.87,33.31,134.03h1.98c11.69-43.69,25.73-95.2,39.32-134.78l42.94-120.26h121.36l19.11,372.36h-87.52l-5.5-146.49Z" fill="#009ee7"/>
      </g>
    </g>
  </g>
</svg>